<svg width="38" height="18" viewBox="0 0 38 18" fill="none" xmlns="http://www.w3.org/2000/svg">
<path d="M2.62891 0.785156L5.875 14.7891L9.76562 0.785156H12.2969L16.1875 14.7891L19.4336 0.785156H21.9883L17.4648 18H15.0156L11.043 3.72656L7.04688 18H4.59766L0.0976562 0.785156H2.62891ZM30.625 8.0625C31.6094 8.0625 32.375 7.92578 32.9219 7.65234C33.7812 7.22266 34.2109 6.44922 34.2109 5.33203C34.2109 4.20703 33.7539 3.44922 32.8398 3.05859C32.3242 2.83984 31.5586 2.73047 30.543 2.73047H26.3828V8.0625H30.625ZM31.4102 16.0078C32.8398 16.0078 33.8594 15.5938 34.4688 14.7656C34.8516 14.2422 35.043 13.6094 35.043 12.8672C35.043 11.6172 34.4844 10.7656 33.3672 10.3125C32.7734 10.0703 31.9883 9.94922 31.0117 9.94922H26.3828V16.0078H31.4102ZM24.0977 0.785156H31.4922C33.5078 0.785156 34.9414 1.38672 35.793 2.58984C36.293 3.30078 36.543 4.12109 36.543 5.05078C36.543 6.13672 36.2344 7.02734 35.6172 7.72266C35.2969 8.08984 34.8359 8.42578 34.2344 8.73047C35.1172 9.06641 35.7773 9.44531 36.2148 9.86719C36.9883 10.6172 37.375 11.6523 37.375 12.9727C37.375 14.082 37.0273 15.0859 36.332 15.9844C35.293 17.3281 33.6406 18 31.375 18H24.0977V0.785156Z" fill="#22AFFF"/>
</svg>
